<svg id="Layer_1" enable-background="new 0 0 512 512" height="512" viewBox="0 0 512 512" width="512" xmlns="http://www.w3.org/2000/svg"><g><g><g><path d="m390.61 499.872c-.83 3.161-3.61 5.432-6.88 5.592l-7.13.37-120.22 6.162h-.76l-127.35-6.532c-3.27-.16-6.05-2.431-6.88-5.592-.82-3.171.5-6.502 3.27-8.252 26.02-16.375 50.59-27.888 59.93-32.069l71.41-47.275 46.32 30.669 25.09 16.605c9.34 4.181 33.91 15.695 59.93 32.069 2.77 1.751 4.09 5.082 3.27 8.253z" fill="#9696b8"/><path d="m390.61 499.872c-.83 3.161-3.61 5.432-6.88 5.592l-7.13.37c-38.44-30.209-72.68-45.553-72.68-45.553-.88-5.512-1.37-11.443-1.6-17.335l25.09 16.605c9.34 4.181 33.91 15.695 59.93 32.069 2.77 1.75 4.09 5.081 3.27 8.252z" fill="#7c7c96"/><path d="m327.98 415.567c-.04.22-3.35 21.606-.57 43.983-7.22.28-15.04.53-23.49.73-14.16.34-30.08.54-47.92.54-28.49 0-52.09-.52-71.41-1.27 2.78-22.377-.53-43.763-.57-43.993-.34-2.161.28-4.371 1.7-6.042 1.43-1.671 3.51-2.641 5.71-2.641h129.14c2.2 0 4.29.97 5.71 2.641 1.43 1.671 2.05 3.881 1.7 6.052z" fill="#7c7c96"/><path d="m327.98 415.567c-.04.22-3.35 21.606-.57 43.983-7.22.28-15.04.53-23.49.73-3.04-19.126-1.4-43.313-.48-53.406h17.13c2.2 0 4.29.97 5.71 2.641 1.43 1.671 2.05 3.881 1.7 6.052z" fill="#606075"/><path d="m512 232.673c0 109.052-6.48 173.611-6.55 174.251-.36 3.571-3.2 6.382-6.77 6.712-.31.03-10.4.93-28.83 2.151-38.79 2.561-114.55 6.492-213.85 6.492-146.49 0-241.73-8.563-242.68-8.643-3.57-.33-6.41-3.141-6.77-6.712-.07-.64-6.55-65.199-6.55-174.251 0-109.062 6.48-173.611 6.55-174.251.36-3.571 3.2-6.382 6.77-6.712.95-.08 96.19-8.643 242.68-8.643 100.23 0 176.46 4.011 214.92 6.562l.87.06c17.2 1.15 26.59 2.001 26.89 2.021 3.57.33 6.41 3.141 6.77 6.712.07.64 6.55 65.189 6.55 174.251z" fill="#9696b8"/><path d="m505.45 58.422c.07.64 6.55 65.189 6.55 174.251 0 109.052-6.48 173.611-6.55 174.251-.36 3.571-3.2 6.382-6.77 6.712-.31.03-10.4.93-28.83 2.151 3.57-.33 5.24-2.991 5.6-6.612.07-.65 6.55-66.039 6.55-176.502 0-110.472-6.48-175.852-6.55-176.502-.28-2.831-2.07-5.401-4.53-6.542l.87.06c17.2 1.15 26.59 2.001 26.89 2.021 3.57.33 6.41 3.141 6.77 6.712z" fill="#7c7c96"/><path d="m482 232.663c0 55.626-1.74 99.159-3.19 125.897-.21 3.781-3.2 6.822-6.99 7.072-6.54.44-14.35.94-23.35 1.451-41.5 2.371-108.36 5.172-192.47 5.172-102.35 0-179.15-4.141-215.82-6.622-3.79-.25-6.78-3.291-6.99-7.072-1.45-26.729-3.19-70.271-3.19-125.898 0-66.55 2.4-116.124 4.41-145.993.25-3.741 3.23-6.722 6.98-6.982 36.65-2.471 113.28-6.612 214.61-6.612 83.25 0 149.83 2.791 191.26 5.162 9 .51 16.81 1.01 23.35 1.451 3.75.26 6.73 3.241 6.98 6.982 2.01 29.878 4.41 79.463 4.41 145.992z" fill="#f4f2f1"/><path d="m482 232.663c0 55.626-1.74 99.159-3.19 125.897-.21 3.781-3.2 6.822-6.99 7.072-6.54.44-14.35.94-23.35 1.451 1.72-30.359 3.53-76.242 3.53-134.74 0-72.741-2.8-125.977-4.74-154.105 9 .51 16.81 1.01 23.35 1.451 3.75.26 6.73 3.241 6.98 6.982 2.01 29.878 4.41 79.463 4.41 145.992z" fill="#ded6d4"/><g fill="#d1c4c1"><path d="m100.438 323.883c-8.055-.36-16.041-.75-23.827-1.163-.289-7.808-.541-15.789-.753-23.814-.11-4.142-3.566-7.404-7.695-7.302-4.141.109-7.409 3.556-7.3 7.698.276 10.446.62 20.822 1.023 30.84.156 3.862 3.219 6.974 7.078 7.189 9.963.554 20.327 1.073 30.805 1.542.114.005.228.007.341.007 3.988 0 7.307-3.142 7.487-7.167.183-4.139-3.021-7.644-7.159-7.83z"/><path d="m100.664 106.468c-10.486.47-20.85.991-30.805 1.546-3.827.213-6.877 3.28-7.072 7.109-.506 9.942-.95 20.323-1.321 30.853-.146 4.141 3.091 7.616 7.231 7.762.09.003.179.005.269.005 4.02 0 7.348-3.187 7.49-7.238.286-8.094.614-16.097.981-23.877 7.804-.416 15.815-.808 23.899-1.17 4.138-.186 7.342-3.692 7.157-7.831-.186-4.139-3.689-7.34-7.829-7.159z"/><path d="m410.664 121.458c8.084.362 16.095.755 23.899 1.17.367 7.78.696 15.782.981 23.877.143 4.051 3.47 7.238 7.49 7.238.089 0 .179-.001.269-.005 4.14-.146 7.377-3.621 7.231-7.762-.371-10.531-.815-20.911-1.321-30.853-.195-3.829-3.245-6.896-7.072-7.109-9.955-.555-20.319-1.076-30.805-1.546-4.141-.179-7.643 3.019-7.829 7.159-.186 4.139 3.018 7.645 7.157 7.831z"/><path d="m443.838 291.605c-4.107-.081-7.585 3.16-7.695 7.302-.212 8.024-.464 16.006-.753 23.814-8.359.443-16.947.86-25.618 1.243-4.138.183-7.345 3.686-7.162 7.826.177 4.027 3.497 7.172 7.487 7.172.111 0 .224-.002.336-.007 11.103-.489 22.073-1.035 32.604-1.622 3.858-.214 6.922-3.327 7.078-7.189.403-10.019.747-20.394 1.023-30.84.109-4.143-3.159-7.59-7.3-7.699z"/></g><path d="m409.832 495.496c-.815-4.062-4.768-6.693-8.83-5.879-.368.074-37.986 7.379-145.002 7.379-106.533 0-144.639-7.306-145.012-7.381-4.055-.812-8.005 1.821-8.82 5.881-.815 4.062 1.816 8.017 5.877 8.832 1.56.313 39.457 7.672 147.955 7.672s146.395-7.359 147.955-7.672c4.061-.815 6.692-4.77 5.877-8.832z" fill="#7c7c96"/></g></g><path d="m370.17 207.791c-.67.4-66.86 40.652-107.95 101.62-1.4 2.061-3.73 3.301-6.22 3.301s-4.82-1.24-6.22-3.301c-41.16-61.068-107.28-101.22-107.95-101.62-2.71-1.63-4.11-4.801-3.49-7.912.62-3.101 3.13-5.482 6.27-5.942.67-.1 15.49-2.251 39.94-4.131-.7-22.006-1.05-44.763-1.05-67.75 0-53.196 1.9-93.437 3.03-112.683.22-3.751 3.17-6.752 6.91-7.042 14.58-1.13 32.64-2.331 62.56-2.331 15.08 0 30.15.32 42.64.77 7.82.27 14.64.6 19.81.92 3.78.23 6.79 3.261 7.02 7.042 1.13 19.256 3.03 59.588 3.03 113.323 0 23.037-.35 45.793-1.03 67.75 6.51.5 12.34 1.02 17.4 1.52 13.93 1.361 22.03 2.541 22.52 2.611 3.14.46 5.65 2.841 6.27 5.942.62 3.112-.78 6.282-3.49 7.913z" fill="#80d297"/><g fill="#d1c4c1"><path d="m147.066 255.182c-4-1.094-8.121 1.261-9.213 5.257-1.093 3.997 1.261 8.122 5.256 9.216.435.119 43.713 12.407 62.927 56.59 1.229 2.825 3.986 4.512 6.881 4.512.999 0 2.014-.201 2.988-.625 3.798-1.653 5.538-6.073 3.886-9.872-22.049-50.702-70.666-64.515-72.725-65.078z"/><path d="m374.147 260.44c-1.093-3.996-5.214-6.352-9.213-5.257-2.059.563-50.675 14.376-72.725 65.078-1.652 3.799.087 8.219 3.885 9.872.975.424 1.989.625 2.988.625 2.895 0 5.653-1.687 6.881-4.512 19.108-43.939 62.508-56.474 62.944-56.595 3.987-1.1 6.331-5.22 5.24-9.211z"/></g><g fill="#66b578"><path d="m328.5 122.056c0 23.037-.35 45.793-1.03 67.75-11.68-.68-25.3-.6-25.3-.6 2.89-97.109-2.83-178.943-3.53-188.435 7.82.27 14.64.6 19.81.92 3.78.23 6.79 3.261 7.02 7.042 1.13 19.255 3.03 59.587 3.03 113.323z"/><path d="m370.17 207.791c-.67.4-66.86 40.652-107.95 101.62 37.57-68.83 71.07-106.181 82.65-118.085 13.93 1.361 22.03 2.541 22.52 2.611 3.14.46 5.65 2.841 6.27 5.942.62 3.111-.78 6.281-3.49 7.912z"/></g></g></svg>