<svg height="464pt" viewBox="-48 0 464 464.1599" width="464pt" xmlns="http://www.w3.org/2000/svg"><path d="m32.113281 416h288v32h-288zm0 0" fill="#898890"/><path d="m352.113281 136v128h-224v-144h224zm0 0" fill="#a78966"/><path d="m320.113281 400c14.53125-.035156 27.269531 9.699219 31.054688 23.730469 3.78125 14.03125-2.339844 28.851562-14.921875 36.125-12.582032 7.269531-28.476563 5.179687-38.75-5.101563-10.269532-10.28125-12.347656-26.179687-5.0625-38.753906 5.710937-9.890625 16.257812-15.988281 27.679687-16zm0 0" fill="#e0e0e2"/><path d="m216.113281 448v8h-80v-48h80zm0 0" fill="#d8d7da"/><path d="m152.113281 384h48v24h-48zm0 0" fill="#e0e0e2"/><path d="m152.113281 352h48v32h-48zm0 0" fill="#898890"/><path d="m152.113281 320h48v32h-48zm0 0" fill="#e0e0e2"/><path d="m59.792969 416c7.242187 12.546875 5.15625 28.390625-5.089844 38.632812-10.246094 10.242188-26.09375 12.320313-38.636719 5.070313-12.542968-7.25-18.648437-22.019531-14.890625-36.007813 3.761719-13.992187 16.449219-23.710937 30.9375-23.695312 11.425781-.007812 21.980469 6.097656 27.679688 16zm0 0" fill="#e0e0e2"/><path d="m72.113281 56v208h240v56h-256c-26.511719 0-48-21.492188-48-48v-224c0-26.507812 21.488281-48 48-48h256v56zm0 0" fill="#898890"/><path d="m368.113281 264v24h-256v-24zm0 0" fill="#e0e0e2"/><path d="m136.113281 344h80v16h-80zm0 0" fill="#57565c"/><path d="m136.113281 376h80v16h-80zm0 0" fill="#57565c"/><path d="m152.113281 144h32v16h-32zm0 0" fill="#ffcd00"/><path d="m152.113281 176h96v16h-96zm0 0" fill="#ffcd00"/><path d="m368.113281 32v24h-256v-24zm0 0" fill="#e0e0e2"/><path d="m152.113281 320h48v8h-48zm0 0" fill="#c6c5ca"/><path d="m120.113281 288h192v8h-192zm0 0" fill="#787680"/><path d="m36.113281 24c6.625 0 12 5.371094 12 12v64c0 6.628906-5.375 12-12 12-6.628906 0-12-5.371094-12-12v-64c0-6.628906 5.371094-12 12-12zm0 0" fill="#c6c5ca"/><path d="m352.113281 56v64h-224v-32h112l14-32zm0 0" fill="#c0ab91"/><path d="m352.113281 64v-8h-98l-3.503906 8zm0 0" fill="#b39a7c"/></svg>