<svg id="Capa_1" enable-background="new 0 0 512 512" height="512" viewBox="0 0 512 512" width="512" xmlns="http://www.w3.org/2000/svg"><g><path d="m215.321 240.546h-197.412c-5.749 0-10.409-4.66-10.409-10.409v-188.203c0-5.749 4.66-10.409 10.409-10.409h197.412c5.749 0 10.409 4.66 10.409 10.409v188.203c-.001 5.748-4.661 10.409-10.409 10.409z" fill="#b4d0d5"/><path d="m215.321 31.525h-19.117c5.749 0 10.409 4.66 10.409 10.409v80.532c0 6.995-5.671 12.666-12.666 12.666h-35.583c-15.77 0-28.554 12.784-28.554 28.554v76.86h85.511c.359 0 .714-.018 1.064-.054 5.249-.533 9.345-4.966 9.345-10.355v-188.203c-.001-5.749-4.661-10.409-10.409-10.409z" fill="#9bb9c1"/><path d="m194.096 93.188h-154.962c-1.201 0-2.174-.973-2.174-2.174v-29.23c0-1.201.973-2.174 2.174-2.174h154.962c1.201 0 2.174.973 2.174 2.174v29.229c0 1.201-.973 2.175-2.174 2.175z" fill="#90d8f9"/><path d="m194.096 59.61h-17.893c1.201 0 2.174.973 2.174 2.174v29.229c0 1.201-.973 2.174-2.174 2.174h17.893c1.201 0 2.174-.973 2.174-2.174v-29.229c0-1.2-.973-2.174-2.174-2.174z" fill="#61a2f9"/><path d="m355.451 360.539h-197.411c-5.749 0-10.409-4.66-10.409-10.409v-188.203c0-5.749 4.66-10.409 10.409-10.409h197.412c5.749 0 10.409 4.66 10.409 10.409v188.203c-.001 5.749-4.661 10.409-10.41 10.409z" fill="#d0e2e7"/><path d="m355.452 151.518h-19.117c5.749 0 10.409 4.66 10.409 10.409v80.532c0 6.995-5.671 12.666-12.666 12.666h-35.583c-15.77 0-28.554 12.784-28.554 28.554v76.86h85.511c.359 0 .714-.018 1.064-.054 5.249-.533 9.345-4.966 9.345-10.355v-188.203c-.001-5.749-4.661-10.409-10.409-10.409z" fill="#b4d0d5"/><path d="m334.227 213.181h-154.963c-1.201 0-2.174-.973-2.174-2.174v-29.229c0-1.201.973-2.174 2.174-2.174h154.962c1.201 0 2.174.973 2.174 2.174v29.229c.001 1.201-.972 2.174-2.173 2.174z" fill="#b1e4f9"/><path d="m334.227 179.604h-17.893c1.201 0 2.174.973 2.174 2.174v29.229c0 1.201-.973 2.174-2.174 2.174h17.893c1.201 0 2.174-.973 2.174-2.174v-29.229c0-1.201-.973-2.174-2.174-2.174z" fill="#90d8f9"/><path d="m494.092 480.475h-197.412c-5.749 0-10.409-4.66-10.409-10.409v-188.202c0-5.749 4.66-10.409 10.409-10.409h197.412c5.749 0 10.409 4.66 10.409 10.409v188.203c-.001 5.748-4.661 10.408-10.409 10.408z" fill="#f6f9f9"/><path d="m494.092 271.455h-19.117c5.749 0 10.409 4.66 10.409 10.409v188.203c0 5.749-4.66 10.409-10.409 10.409h19.117c5.749 0 10.409-4.66 10.409-10.409v-188.203c-.001-5.749-4.661-10.409-10.409-10.409z" fill="#dfeaef"/><path d="m472.867 333.118h-154.962c-1.201 0-2.174-.973-2.174-2.174v-29.229c0-1.201.973-2.174 2.174-2.174h154.962c1.201 0 2.174.973 2.174 2.174v29.229c0 1.2-.973 2.174-2.174 2.174z" fill="#b1e4f9"/><path d="m472.867 299.54h-17.893c1.201 0 2.174.973 2.174 2.174v29.229c0 1.201-.973 2.174-2.174 2.174h17.893c1.201 0 2.174-.973 2.174-2.174v-29.229c0-1.2-.973-2.174-2.174-2.174z" fill="#90d8f9"/><g><path d="m334.227 220.681c5.335 0 9.675-4.34 9.675-9.674v-29.229c0-5.334-4.34-9.674-9.675-9.674h-154.962c-5.335 0-9.675 4.34-9.675 9.674v29.229c0 5.334 4.34 9.674 9.675 9.674zm-149.637-33.577h144.312v18.578h-144.312z"/><path d="m482.541 330.944v-29.229c0-5.334-4.34-9.674-9.674-9.674h-154.963c-5.334 0-9.674 4.34-9.674 9.674v29.229c0 5.334 4.34 9.674 9.674 9.674h154.963c5.334 0 9.674-4.34 9.674-9.674zm-15-5.326h-144.311v-18.577h144.311z"/><path d="m194.096 52.11h-98.904c-4.143 0-7.5 3.358-7.5 7.5s3.357 7.5 7.5 7.5h93.578v18.578h-144.311v-18.578h20.746c4.143 0 7.5-3.358 7.5-7.5s-3.357-7.5-7.5-7.5h-26.071c-5.335 0-9.675 4.34-9.675 9.674v29.229c0 5.334 4.34 9.675 9.675 9.675h154.962c5.335 0 9.675-4.34 9.675-9.675v-29.228c0-5.335-4.34-9.675-9.675-9.675z"/><path d="m494.092 263.955h-120.732v-102.028c0-9.875-8.034-17.909-17.909-17.909h-122.222v-102.084c0-9.875-8.034-17.909-17.909-17.909h-197.411c-9.875 0-17.909 8.034-17.909 17.909v188.203c0 9.875 8.034 17.909 17.909 17.909h122.222v36.501c0 4.143 3.357 7.5 7.5 7.5s7.5-3.357 7.5-7.5v-122.62c0-1.604 1.305-2.909 2.909-2.909h197.411c1.604 0 2.909 1.305 2.909 2.909v102.028h-61.68c-9.875 0-17.908 8.034-17.908 17.909v71.175h-120.732c-1.604 0-2.909-1.305-2.909-2.908v-35.597c0-4.143-3.357-7.5-7.5-7.5s-7.5 3.357-7.5 7.5v35.597c0 9.875 8.034 17.908 17.909 17.908h120.731v102.028c0 9.875 8.033 17.908 17.908 17.908h143.302c4.143 0 7.5-3.357 7.5-7.5s-3.357-7.5-7.5-7.5h-143.301c-1.604 0-2.908-1.305-2.908-2.908v-188.203c0-1.604 1.305-2.909 2.908-2.909h197.412c1.604 0 2.908 1.305 2.908 2.909v188.203c0 1.604-1.305 2.908-2.908 2.908h-24.124c-4.143 0-7.5 3.357-7.5 7.5s3.357 7.5 7.5 7.5h24.124c9.875 0 17.908-8.033 17.908-17.908v-188.203c0-9.875-8.033-17.909-17.908-17.909zm-353.961-102.028v71.119h-122.222c-1.604 0-2.909-1.305-2.909-2.909v-188.203c0-1.604 1.305-2.909 2.909-2.909h197.411c1.604 0 2.909 1.305 2.909 2.909v102.084h-60.189c-9.875 0-17.909 8.034-17.909 17.909z"/></g></g></svg>