<svg height="512" viewBox="0 0 74 74" width="512" xmlns="http://www.w3.org/2000/svg"><g id="color_line" data-name="color line"><path d="m70 50.51v12.01a3.308 3.308 0 0 1 -3.31 3.31h-61.04a3.316 3.316 0 0 1 -3.32-3.31v-12.01z" fill="#9297ab"/><path d="m70 50.51v12.01a3.308 3.308 0 0 1 -3.31 3.31h-3.21a3.308 3.308 0 0 0 3.31-3.31v-12.01z" fill="#84879c"/><path d="m70 11.48v39.03h-67.67v-39.03a3.316 3.316 0 0 1 3.32-3.31h61.04a3.308 3.308 0 0 1 3.31 3.31z" fill="#89c5cd"/><path d="m70 11.48v39.03h-3.42v-36.03a3.308 3.308 0 0 0 -3.31-3.31h-60.92a3.307 3.307 0 0 1 3.3-3h61.04a3.308 3.308 0 0 1 3.31 3.31z" fill="#6eaaad"/><path d="m63.5 58.375h-54.667a.5.5 0 1 1 0-1h54.667a.5.5 0 0 1 0 1z" fill="#323c6b"/><path d="m13.993 61.521a.5.5 0 0 1 -.5-.5v-6.292a.5.5 0 0 1 1 0v6.292a.5.5 0 0 1 -.5.5z" fill="#323c6b"/><circle cx="36.167" cy="29.375" fill="#eeefee" r="13"/><path d="m45.22 38.7a12.992 12.992 0 0 0 -19.98-16.35 12.995 12.995 0 1 1 19.98 16.35z" fill="#e1e6e9"/><path d="m31.381 24.7v9.354a1.469 1.469 0 0 0 2.134 1.31l9.215-4.677a1.469 1.469 0 0 0 0-2.621l-9.215-4.677a1.469 1.469 0 0 0 -2.134 1.311z" fill="#fe7058"/><path d="m42.73 30.69-.7.36a1.454 1.454 0 0 0 -.78-1.57l-9.21-4.68a1.418 1.418 0 0 0 -.65-.16 1.46 1.46 0 0 1 2.13-1.25l9.21 4.67a1.479 1.479 0 0 1 0 2.63z" fill="#ea6453"/><g fill="#323c6b"><path d="m22.208 69.33h-9.75a.5.5 0 1 1 0-1h9.75a.5.5 0 0 1 0 1z"/><path d="m9.813 69.33h-.542a.5.5 0 1 1 0-1h.542a.5.5 0 0 1 0 1z"/><path d="m61.25 5.67h-.583a.5.5 0 0 1 0-1h.583a.5.5 0 0 1 0 1z"/><path d="m72.512 9.583a.5.5 0 0 1 -.462-.31 5.788 5.788 0 0 0 -5.36-3.6h-2.607a.5.5 0 0 1 0-1h2.606a6.784 6.784 0 0 1 6.284 4.223.5.5 0 0 1 -.271.653.5.5 0 0 1 -.19.034z"/><path d="m70 51.01h-67.67a.5.5 0 0 1 -.5-.5v-39.03a3.819 3.819 0 0 1 3.82-3.81h61.039a3.814 3.814 0 0 1 3.811 3.81v39.03a.5.5 0 0 1 -.5.5zm-67.17-1h66.67v-38.53a2.814 2.814 0 0 0 -2.811-2.81h-61.039a2.819 2.819 0 0 0 -2.82 2.81z"/><path d="m66.689 66.33h-61.039a3.819 3.819 0 0 1 -3.82-3.81v-12.01a.5.5 0 0 1 .5-.5h67.67a.5.5 0 0 1 .5.5v12.01a3.814 3.814 0 0 1 -3.811 3.81zm-63.859-15.32v11.51a2.819 2.819 0 0 0 2.82 2.81h61.039a2.814 2.814 0 0 0 2.811-2.81v-11.51z"/><path d="m36.167 42.875a13.5 13.5 0 1 1 13.5-13.5 13.515 13.515 0 0 1 -13.5 13.5zm0-26a12.5 12.5 0 1 0 12.5 12.5 12.514 12.514 0 0 0 -12.5-12.5z"/><path d="m32.85 36.023a1.973 1.973 0 0 1 -1.968-1.971v-9.352a1.969 1.969 0 0 1 2.86-1.756l9.216 4.677a1.97 1.97 0 0 1 0 3.512l-9.216 4.677a1.967 1.967 0 0 1 -.892.213zm0-12.3a.971.971 0 0 0 -.968.97v9.354a.969.969 0 0 0 1.407.864l9.211-4.672a.969.969 0 0 0 0-1.729l-9.216-4.677a.965.965 0 0 0 -.434-.105z"/></g><path d="m50.761 62.354a.712.712 0 0 1 -.712.712l-8.692-.008a.712.712 0 0 1 0-1.424l8.692.008a.712.712 0 0 1 .712.712z" fill="#fff"/><path d="m53.6 62.354a.712.712 0 0 1 -.712.712h-.373a.712.712 0 1 1 0-1.424h.373a.712.712 0 0 1 .712.712z" fill="#fff"/></g></svg>